<mxfile host="app.diagrams.net" modified="2023-01-04T10:24:58.189Z" agent="5.0 (Macintosh; Intel Mac OS X 10_15_7) AppleWebKit/537.36 (KHTML, like Gecko) Chrome/108.0.0.0 Safari/537.36" version="20.7.4" etag="hbXhbqAcO6VQhkY2NLcj" type="github">
  <diagram id="DPb6qml3PPKVToHAS9O5" name="第 1 页">
    <mxGraphModel dx="1481" dy="826" grid="1" gridSize="10" guides="1" tooltips="1" connect="1" arrows="1" fold="1" page="1" pageScale="1" pageWidth="827" pageHeight="1169" math="0" shadow="0">
      <root>
        <mxCell id="0" />
        <mxCell id="1" parent="0" />
        <mxCell id="wA1a_2lpNDio3Y59-0J--19" value="" style="rounded=1;whiteSpace=wrap;html=1;dashed=1;" vertex="1" parent="1">
          <mxGeometry x="110" y="370" width="280" height="150" as="geometry" />
        </mxCell>
        <mxCell id="wA1a_2lpNDio3Y59-0J--1" value="商家基础信息" style="rounded=1;whiteSpace=wrap;html=1;" vertex="1" parent="1">
          <mxGeometry x="120" y="380" width="80" height="30" as="geometry" />
        </mxCell>
        <mxCell id="wA1a_2lpNDio3Y59-0J--3" value="单量数据" style="rounded=1;whiteSpace=wrap;html=1;" vertex="1" parent="1">
          <mxGeometry x="210" y="380" width="80" height="30" as="geometry" />
        </mxCell>
        <mxCell id="wA1a_2lpNDio3Y59-0J--4" value="签约信息" style="rounded=1;whiteSpace=wrap;html=1;" vertex="1" parent="1">
          <mxGeometry x="300" y="380" width="80" height="30" as="geometry" />
        </mxCell>
        <mxCell id="wA1a_2lpNDio3Y59-0J--5" value="产品定位" style="rounded=1;whiteSpace=wrap;html=1;" vertex="1" parent="1">
          <mxGeometry x="120" y="430" width="80" height="30" as="geometry" />
        </mxCell>
        <mxCell id="wA1a_2lpNDio3Y59-0J--6" value="产品价格" style="rounded=1;whiteSpace=wrap;html=1;" vertex="1" parent="1">
          <mxGeometry x="210" y="430" width="80" height="30" as="geometry" />
        </mxCell>
        <mxCell id="wA1a_2lpNDio3Y59-0J--7" value="产品类别" style="rounded=1;whiteSpace=wrap;html=1;" vertex="1" parent="1">
          <mxGeometry x="300" y="430" width="80" height="30" as="geometry" />
        </mxCell>
        <mxCell id="wA1a_2lpNDio3Y59-0J--14" value="销售基础信息" style="rounded=1;whiteSpace=wrap;html=1;" vertex="1" parent="1">
          <mxGeometry x="120" y="480" width="80" height="30" as="geometry" />
        </mxCell>
        <mxCell id="wA1a_2lpNDio3Y59-0J--15" value="销售拜访反馈" style="rounded=1;whiteSpace=wrap;html=1;" vertex="1" parent="1">
          <mxGeometry x="210" y="480" width="80" height="30" as="geometry" />
        </mxCell>
        <mxCell id="wA1a_2lpNDio3Y59-0J--16" value="销售历史签约" style="rounded=1;whiteSpace=wrap;html=1;" vertex="1" parent="1">
          <mxGeometry x="300" y="480" width="80" height="30" as="geometry" />
        </mxCell>
        <mxCell id="wA1a_2lpNDio3Y59-0J--18" value="" style="rounded=1;whiteSpace=wrap;html=1;dashed=1;" vertex="1" parent="1">
          <mxGeometry x="110" y="280" width="280" height="80" as="geometry" />
        </mxCell>
        <mxCell id="wA1a_2lpNDio3Y59-0J--20" value="客户画像" style="rounded=1;whiteSpace=wrap;html=1;" vertex="1" parent="1">
          <mxGeometry x="121" y="300" width="80" height="40" as="geometry" />
        </mxCell>
        <mxCell id="wA1a_2lpNDio3Y59-0J--21" value="销售画像" style="rounded=1;whiteSpace=wrap;html=1;" vertex="1" parent="1">
          <mxGeometry x="301" y="300" width="80" height="40" as="geometry" />
        </mxCell>
        <mxCell id="wA1a_2lpNDio3Y59-0J--22" value="产品画像" style="rounded=1;whiteSpace=wrap;html=1;" vertex="1" parent="1">
          <mxGeometry x="211" y="300" width="80" height="40" as="geometry" />
        </mxCell>
        <mxCell id="wA1a_2lpNDio3Y59-0J--23" value="" style="rounded=1;whiteSpace=wrap;html=1;dashed=1;" vertex="1" parent="1">
          <mxGeometry x="110" y="180" width="280" height="80" as="geometry" />
        </mxCell>
        <mxCell id="wA1a_2lpNDio3Y59-0J--24" value="召回&lt;br&gt;双塔/多分类" style="rounded=1;whiteSpace=wrap;html=1;" vertex="1" parent="1">
          <mxGeometry x="130" y="191" width="100" height="49" as="geometry" />
        </mxCell>
        <mxCell id="wA1a_2lpNDio3Y59-0J--25" value="wide&amp;amp;deep/ DCN&amp;nbsp;" style="rounded=1;whiteSpace=wrap;html=1;" vertex="1" parent="1">
          <mxGeometry x="250" y="190" width="109" height="50" as="geometry" />
        </mxCell>
        <mxCell id="wA1a_2lpNDio3Y59-0J--26" value="推荐决策引擎" style="text;html=1;strokeColor=none;fillColor=none;align=center;verticalAlign=middle;whiteSpace=wrap;rounded=0;" vertex="1" parent="1">
          <mxGeometry x="291" y="236" width="79" height="30" as="geometry" />
        </mxCell>
      </root>
    </mxGraphModel>
  </diagram>
</mxfile>
